<?xml version="1.0" encoding="utf-8"?>
<!-- Generator: Adobe Illustrator 20.0.0, SVG Export Plug-In . SVG Version: 6.00 Build 0)  -->
<svg version="1.1" id="レイヤー_1" xmlns="http://www.w3.org/2000/svg" xmlns:xlink="http://www.w3.org/1999/xlink" x="0px"
	 y="0px" viewBox="0 0 18 18" style="enable-background:new 0 0 18 18;" xml:space="preserve">
<style type="text/css">
	.st0{fill:#F05350;}
</style>
<path class="st0" d="M9,17c-0.1,0-0.3,0-0.4-0.1C8.3,16.6,0,10.6,0,6c0-2.2,1.3-4.1,3.4-4.7C5.4,0.7,7.5,1.4,9,3
	c1.7-2,3.9-2.3,5.5-1.8C16.6,1.9,18,3.8,18,6c0,4.6-8.2,10.6-8.6,10.8C9.3,16.9,9.1,17,9,17z M4.9,2.4c-0.4,0-0.7,0.1-1.1,0.2
	C2.3,3.1,1.4,4.4,1.4,6c0,3,5.2,7.6,7.6,9.4c2.5-1.8,7.6-6.4,7.6-9.4c0-1.7-1-3-2.5-3.5c-1.3-0.4-3.2-0.1-4.5,2
	C9.5,4.7,9.2,4.8,9,4.8c-0.2,0-0.4-0.1-0.6-0.3C7.4,3,6.1,2.4,4.9,2.4z"/>
</svg>
