<svg id="レイヤー_1" data-name="レイヤー 1" xmlns="http://www.w3.org/2000/svg" viewBox="0 0 98.21 106.57"><defs><style>.cls-1{fill:#e0e0e0;}</style></defs><title>icon_no_shipping</title><path class="cls-1" d="M2,36.56a2,2,0,0,0-2,2v6a2,2,0,1,0,4,0v-6a2,2,0,0,0-2-2Zm0-12a2,2,0,0,0-2,2v3a2,2,0,0,0,4,0v-3a2,2,0,0,0-2-2Zm0,28a2,2,0,0,0-2,2v6a2,2,0,1,0,4,0v-6a2,2,0,0,0-2-2Zm0,16a2,2,0,0,0-2,2v6a2,2,0,1,0,4,0v-6a2,2,0,0,0-2-2ZM16,90.79a2,2,0,0,0-.68,3.88l3.13,1.12h.1l2.43.87a2,2,0,0,0,1.35-3.77l-5.65-2a2,2,0,0,0-.67-.12ZM2.18,83.61a2,2,0,0,0-.93,3.83l2.05,1.32H3.4l2.37,1a2,2,0,0,0,1.59-3.67L2.85,83.77a2,2,0,0,0-.66-.16ZM30.3,97a2,2,0,0,0-1,3.82l2.47,1.12h0l3,1.34a2,2,0,0,0,1.64-3.65L31,97.13A2,2,0,0,0,30.3,97ZM43.84,80.81a2,2,0,0,0-2,2v6a2,2,0,0,0,4,0v-6a2,2,0,0,0-2-2Zm.16,15a2,2,0,0,0-2,2v6a2,2,0,0,0,4,0v-6a2,2,0,0,0-2-2Zm-.16-31a2,2,0,0,0-2,2v6a2,2,0,0,0,4,0v-6a2,2,0,0,0-2-2Zm0-16a2,2,0,0,0-2,2v6a2,2,0,0,0,4,0v-6a2,2,0,0,0-2-2ZM25.2,32.16A2,2,0,0,0,24.53,36l5.65,2a2,2,0,0,0,1.35-3.77l-1.29-.46h0l0,0h0l-4.31-1.54a2,2,0,0,0-.67-.12Zm14,6A2,2,0,0,0,38.53,42l4.65,2a2,2,0,0,0,1.35-3.77l-1.29-.46h0l0,0h0l-3.31-1.54a2,2,0,0,0-.67-.12ZM10.14,26.78a2,2,0,0,0-.67,3.88l5.65,2a2,2,0,0,0,1.35-3.76L11.6,27.18h0l-.76-.27a2,2,0,0,0-.67-.12Z"/><path class="cls-1" d="M80.49,29.4a2,2,0,0,0-.67.12l-4.31,1.54h0l0,0h0l-1.3.46a2,2,0,1,0,1.35,3.77l5.65-2a2,2,0,0,0-.67-3.88Zm15-7a2,2,0,0,0-.67.12l-4.31,1.54h0l0,0h0l-1.3.46a2,2,0,1,0,1.35,3.77l5.65-2a2,2,0,0,0-.67-3.88ZM65.42,34.79a2,2,0,0,0-.67.12l-5.65,2a2,2,0,1,0,1.35,3.77l5.65-2a2,2,0,0,0-.67-3.88ZM54.13,40.61a2,2,0,0,0-2,2v6a2,2,0,0,0,4,0v-6a2,2,0,0,0-2-2Zm0,16a2,2,0,0,0-2,2v6a2,2,0,0,0,4,0v-6a2,2,0,0,0-2-2Zm0,16a2,2,0,0,0-2,2v6a2,2,0,0,0,4,0v-6a2,2,0,0,0-2-2Zm0,16a2,2,0,0,0-2,2v6a2,2,0,0,0,4,0v-6a2,2,0,0,0-2-2Zm23.14,4.94a2,2,0,0,0-.67.12l-5.65,2a2,2,0,1,0,1.35,3.77L73.65,99h.05l4.25-1.52a2,2,0,0,0-.68-3.88Zm-15,7a2,2,0,0,0-.67.12l-4.65,2a2,2,0,1,0,1.35,3.77l1.35-.48h.05l3.25-1.52a2,2,0,0,0-.68-3.88ZM91.34,87.16a2,2,0,0,0-.67.12L85,89.3a2,2,0,0,0,1.34,3.77L92,91a2,2,0,0,0-.68-3.88Zm4.88-10.34a2,2,0,0,0-2,2v6a2,2,0,0,0,4,0v-6a2,2,0,0,0-2-2Zm0-16a2,2,0,0,0-2,2v6a2,2,0,0,0,4,0v-6a2,2,0,0,0-2-2Zm0-16a2,2,0,0,0-2,2v6a2,2,0,0,0,4,0v-6a2,2,0,0,0-2-2Zm0-14a2,2,0,0,0-2,2v4a2,2,0,0,0,4,0v-4a2,2,0,0,0-2-2Z"/><path class="cls-1" d="M49.13,0h0ZM34.62,5a2,2,0,0,0-.64.11L28.28,7a2,2,0,0,0,1.3,3.78l5.68-1.94A2,2,0,0,0,34.62,5ZM19.47,10.13a2,2,0,0,0-.65.11l-3.35,1.14h-.13l0,0h0l-5.14,2.73A2,2,0,0,0,11.44,18L20.12,14a2,2,0,0,0-.65-3.89Zm-.56,8.63a2,2,0,0,0-.69,3.88l5.63,2.06a2,2,0,0,0,1.38-3.76L19.6,18.88a2,2,0,0,0-.69-.12Zm15,5.5a2,2,0,0,0-.69,3.88l5.63,2.06a2,2,0,0,0,1.38-3.76l-5.63-2.06a2,2,0,0,0-.69-.12Zm36.4-2.15a2,2,0,0,0-.67.11l-5.66,2A2,2,0,1,0,65.34,28L71,26a2,2,0,0,0-.67-3.89ZM54.39,28.45a2,2,0,0,0-.67.11l-5.66,2a2,2,0,1,0,1.33,3.77l5.66-2a2,2,0,0,0-.67-3.89ZM85.48,16.13a2,2,0,0,0-.67.11l-5.66,2A2,2,0,0,0,80.49,22l5.67-2a2,2,0,0,0-.67-3.89ZM73.63,8.71A2,2,0,0,0,73,12.6l5.68,1.94A2,2,0,1,0,80,10.75L74.27,8.81a2,2,0,0,0-.65-.11ZM59.48,3.54a2,2,0,0,0-.65,3.89l5.68,1.94a2,2,0,1,0,1.29-3.79L60.13,3.65a2,2,0,0,0-.65-.11ZM49.13,0h0Zm.55.09-.55,1.62L48.58.09h0L48.26.2h0L43.44,1.85a2,2,0,1,0,1.29,3.79l4.41-1.5.24.08A2,2,0,0,0,50.67.43l-1-.33Z"/></svg>