<?xml version="1.0" standalone="no"?><!DOCTYPE svg PUBLIC "-//W3C//DTD SVG 1.1//EN" "http://www.w3.org/Graphics/SVG/1.1/DTD/svg11.dtd"><svg t="1553161390994" class="icon" style="" viewBox="0 0 1024 1024" version="1.1" xmlns="http://www.w3.org/2000/svg" p-id="7059" xmlns:xlink="http://www.w3.org/1999/xlink" width="200" height="200"><defs><style type="text/css"></style></defs><path d="M429.95139567762084 828.9328441472292c-157.66202399202265 16.087961631839043-294.4096978626545-56.30786571143666-304.062474841758-160.8796163183905-9.652776979103429-104.5717506069538 109.3981390965055-202.70831656117198 267.0601630885282-218.796278193011s294.4096978626545 56.30786571143666 304.062474841758 160.8796163183905c11.26157314228733 106.18054677013771-109.3981390965055 202.70831656117198-267.0601630885282 218.796278193011m316.93284414722916-347.49997124772347c-12.87036930547124-4.826388489551714-22.52314628457466-6.43518465273562-16.087961631839043-24.131942447758576 14.479165468655143-38.611107916413715 16.087961631839043-72.39582734327571 0-96.5277697910343-30.567127100494186-45.04629256914932-115.83332374924115-41.82870024278153-212.36109354027542-1.608796163183905 0 0-30.567127100494186 12.87036930547124-22.52314628457466-11.26157314228733 14.479165468655143-48.26388489551715 12.87036930547124-88.48378897511476-11.26157314228733-112.61573142287332-53.090273385068855-53.090273385068855-193.0555395820686 1.608796163183905-313.71525182086145 123.87730456516067-90.09258513829865 90.09258513829865-141.5740623601836 186.62035492933296-141.5740623601836 270.277755414896 0 159.27082015520656 202.70831656117198 255.79858994624084 400.5902446327924 255.79858994624084 259.0161822726087 0 432.7661678964705-152.83563550247095 432.7661678964705-273.49534774126386 0-72.39582734327571-61.13425420098837-114.22452758605719-115.83332374924115-130.31248921789629" fill="#D52B2A" p-id="7060"></path><path d="M922.2430216118958 201.50234050550642c61.13425420098837 69.17823501690789 77.22221583282743 162.4884124815744 51.48147722188496 246.1458129671374-6.43518465273562 19.305553958206858-25.74073861094248 28.958330937310286-45.04629256914932 24.131942447758576-19.305553958206858-6.43518465273562-28.958330937310286-27.349534774126376-22.52314628457466-45.04629256914932 19.305553958206858-57.91666187462057 6.43518465273562-125.48610072834457-37.00231175322981-175.35878178704564-43.43749640596543-48.26388489551715-107.78934293332163-67.569438853724-167.31480097112612-54.69906954825275-19.305553958206858 4.826388489551714-38.611107916413715-8.043980815919522-41.82870024278153-27.349534774126376-4.826388489551714-19.305553958206858 8.043980815919522-38.611107916413715 27.349534774126376-43.43749640596543 82.04860432237913-19.305553958206858 173.74998562386173 6.43518465273562 234.88423982485008 75.6134196696435z m-104.5717506069538 96.5277697910343c30.567127100494186 35.3935155900459 40.219904079597626 83.65740048556306 25.74073861094248 127.09489689152849-4.826388489551714 17.69675779502295-24.131942447758576 27.349534774126376-40.219904079597626 20.914350121390765-16.087961631839043-6.43518465273562-25.74073861094248-24.131942447758576-20.914350121390765-41.82870024278153 6.43518465273562-20.914350121390765 3.21759232636781-45.04629256914932-12.87036930547124-62.743050364172284-14.479165468655143-17.69675779502295-37.00231175322981-24.131942447758576-57.91666187462057-19.305553958206858-17.69675779502295 3.21759232636781-33.784719426862-8.043980815919522-38.611107916413715-25.74073861094248-3.21759232636781-17.69675779502295 8.043980815919522-35.3935155900459 24.131942447758576-40.219904079597626 43.43749640596543-8.043980815919522 90.09258513829865 4.826388489551714 120.65971223879282 41.82870024278153z" fill="#E89214" p-id="7061"></path><path d="M439.6041726567243 639.0948968915285c-4.826388489551714 9.652776979103429-17.69675779502295 12.87036930547124-27.349534774126376 9.652776979103429-9.652776979103429-3.21759232636781-12.87036930547124-14.479165468655143-6.43518465273562-22.52314628457466 4.826388489551714-9.652776979103429 17.69675779502295-12.87036930547124 27.349534774126376-9.652776979103429 8.043980815919522 1.608796163183905 11.26157314228733 12.87036930547124 6.43518465273562 22.52314628457466m-51.48147722188496 62.743050364172284c-16.087961631839043 24.131942447758576-48.26388489551715 33.784719426862-74.00462350645962 22.52314628457466-24.131942447758576-11.26157314228733-32.17592326367809-38.611107916413715-16.087961631839043-61.13425420098837 14.479165468655143-22.52314628457466 46.65508873233324-33.784719426862 72.39582734327571-24.131942447758576 25.74073861094248 11.26157314228733 33.784719426862 38.611107916413715 17.69675779502295 62.743050364172284m57.91666187462057-168.92359713430997c-75.6134196696435-19.305553958206858-162.4884124815744 17.69675779502295-194.66433574525246 82.04860432237913-33.784719426862 65.96064269054008-1.608796163183905 138.35647003381578 75.6134196696435 162.4884124815744 78.83101199601133 24.131942447758576 173.74998562386173-12.87036930547124 205.92590888753983-83.65740048556306 32.17592326367809-69.17823501690789-8.043980815919522-141.5740623601836-86.87499281193087-160.8796163183905" fill="#040000" p-id="7062"></path></svg>