<?xml version="1.0" encoding="utf-8"?>
<!-- Generator: Adobe Illustrator 18.1.1, SVG Export Plug-In . SVG Version: 6.00 Build 0)  -->
<!DOCTYPE svg PUBLIC "-//W3C//DTD SVG 1.1//EN" "http://www.w3.org/Graphics/SVG/1.1/DTD/svg11.dtd">
<svg version="1.1" id="レイヤー_1" xmlns="http://www.w3.org/2000/svg" xmlns:xlink="http://www.w3.org/1999/xlink" x="0px"
	 y="0px" viewBox="0 0 124 26" enable-background="new 0 0 124 26" xml:space="preserve">
<g>
	<g>
		<polygon fill="#989898" points="28.2,7.4 28.2,9.5 31.5,9.5 31.5,19.8 33.6,19.8 33.6,9.5 36.9,9.5 36.9,7.4 		"/>
		<path fill="#989898" d="M43.4,7.2c-3.3,0-4.5,3.9-4.5,6.4c0,2.6,1.2,6.4,4.5,6.4c3.3,0,4.5-3.8,4.5-6.4
			C47.8,11.1,46.6,7.2,43.4,7.2z M43.4,9.3c2.1,0,2.2,3.4,2.2,4.4c0,0.7-0.1,4.2-2.2,4.2c-2.1,0-2.2-3.3-2.2-4.2
			C41.1,12.4,41.4,9.3,43.4,9.3z"/>
		<path fill="#989898" d="M25.6,16.3L25.6,16.3L25.6,16.3c0-0.5-0.1-1-0.3-1.4c-0.5-1.2-1.8-1.8-2.8-2.2c-0.1-0.1-0.3-0.1-0.4-0.2
			c-0.9-0.4-1.5-0.7-1.8-1.1c-0.2-0.2-0.2-0.4-0.2-0.8h0l0,0h0l0,0c0-1.1,0.9-1.3,1.7-1.3c0.5,0,1,0.2,1.2,0.4
			c0.2,0.2,0.3,0.5,0.3,0.9l0,0.2h2.2v-0.4c0-1.9-1.9-3.2-3.7-3.2c-2.2,0-3.8,1.4-3.9,3.4c0,0.6,0.1,1.1,0.4,1.6
			c0.5,1,1.5,1.4,2.4,1.8c1.1,0.5,2.1,0.9,2.5,1.6c0.1,0.2,0.2,0.5,0.2,0.7h0c0,0,0,0.1,0,0.1c0,1.1-0.9,1.5-1.8,1.5
			c-1.1,0-1.7-0.6-1.8-1.6l0-0.2h-2.2v0.6c0,2.1,2,3.3,4,3.3c2,0,4-1.2,4-3.6C25.6,16.4,25.6,16.4,25.6,16.3z"/>
		<path fill="#989898" d="M80.8,16.3L80.8,16.3L80.8,16.3c0-0.5-0.1-1-0.3-1.4c-0.5-1.2-1.8-1.8-2.8-2.2c-0.1-0.1-0.3-0.1-0.4-0.2
			c-0.9-0.4-1.5-0.7-1.8-1.1c-0.2-0.2-0.2-0.4-0.2-0.8h0l0,0h0l0,0c0-1.1,0.9-1.3,1.7-1.3c0.5,0,1,0.2,1.2,0.4
			c0.2,0.2,0.3,0.5,0.3,0.9l0,0.2h2.2v-0.4c0-1.9-1.9-3.2-3.7-3.2c-2.2,0-3.8,1.4-3.9,3.4c0,0.6,0.1,1.1,0.4,1.6
			c0.5,1,1.5,1.4,2.4,1.8c1.1,0.5,2.1,0.9,2.5,1.6c0.1,0.2,0.2,0.5,0.2,0.7h0c0,0,0,0.1,0,0.1c0,1.1-0.9,1.5-1.8,1.5
			c-1.1,0-1.7-0.6-1.8-1.6l0-0.2h-2.2v0.6c0,2.1,2,3.3,4,3.3c2,0,4-1.2,4-3.6C80.8,16.4,80.8,16.4,80.8,16.3z"/>
		<polygon fill="#989898" points="64.2,17.8 64.2,14.4 68.9,14.4 68.9,12.3 64.2,12.3 64.2,9.5 69.6,9.5 69.6,7.4 62.1,7.4 
			62.1,19.8 69.8,19.8 69.8,17.8 		"/>
		<path fill="#989898" d="M56.1,14.4c1.4-0.4,2.3-1.7,2.3-3.3c0-2.3-1.6-3.7-4.1-3.7l-3.5,0v12.4h2.1v-5H54l2.8,5h2.5L56.1,14.4z
			 M52.9,9.5H54c1.4,0,2.2,0.3,2.2,1.6c0,1.3-0.6,1.7-2.2,1.7h-1.2V9.5z"/>
		<path fill="#989898" d="M13,7.5L6.5,2.1L0,7.5v12.3h13L13,7.5z M3,7.4l3.5-2.9L10,7.4H3z M11,17.8H2.1V9.5H11L11,17.8z"/>
		<g>
			<path fill="#989898" d="M88.5,7.2c-2.6,0-4.8,2.1-4.8,4.8c0,2.6,2.1,4.8,4.8,4.8c2.6,0,4.8-2.1,4.8-4.8
				C93.3,9.4,91.1,7.2,88.5,7.2z M87.8,13.3c0,0.8-0.5,1.3-1.3,1.3c-0.8,0-1.3-0.5-1.3-1.3v-0.6h1v0.5c0,0.3,0.2,0.4,0.3,0.4
				c0.2,0,0.3,0,0.3-0.4V9.6h1V13.3z M90.3,12.6h-0.8v1.9h-1V9.6h1.8c1,0,1.6,0.6,1.6,1.5C91.9,12,91.2,12.6,90.3,12.6z"/>
			<path fill="#989898" d="M90.2,10.5h-0.8v1.2h0.8c0.4,0,0.6-0.2,0.6-0.6C90.9,10.8,90.7,10.5,90.2,10.5z"/>
		</g>
	</g>
	<g>
		<g>
			<path fill="#989898" d="M105.3,16.6h1.3V9.4h-1.3V8.3h3.8v1.1h-1.3v7.2h1.3v1.1h-3.8V16.6z"/>
			<path fill="#989898" d="M110.8,8.3h3.1c2.6,0,3.8,1.1,3.8,4.5c0,2.9-0.5,4.8-3.8,4.8h-3.1v-1.1h1V9.4h-1V8.3z M112.9,16.6h1.3
				c1.6,0,2.3-0.9,2.3-3.6c0-2.9-0.8-3.6-2.3-3.6h-1.2V16.6z"/>
		</g>
		<path fill="#989898" d="M111,26c-7.2,0-13-5.8-13-13s5.8-13,13-13c7.2,0,13,5.8,13,13S118.2,26,111,26z M111,1
			c-6.6,0-12,5.4-12,12s5.4,12,12,12c6.6,0,12-5.4,12-12S117.6,1,111,1z"/>
	</g>
</g>
</svg>
